<?xml version="1.0" encoding="UTF-8" standalone="no"?>
<!-- Created with Inkscape (http://www.inkscape.org/) -->
<svg
   xmlns:svg="http://www.w3.org/2000/svg"
   xmlns="http://www.w3.org/2000/svg"
   version="1.0"
   width="244.0735"
   height="254.0336"
   id="svg2">
  <defs
     id="defs4" />
  <g
     transform="translate(-229.23628,-428.6334)"
     id="layer1">
    <path
       d="M 471.30978,550.70588 C 471.32954,617.01429 417.58148,670.77836 351.27303,670.77836 C 284.96459,670.77836 231.21653,617.01429 231.23629,550.70588 C 231.21653,484.39747 284.96459,430.6334 351.27303,430.6334 C 417.58148,430.6334 471.32954,484.39747 471.30978,550.70588 z"
       id="path2383"
       style="opacity:1;fill:#ffffff;fill-opacity:1;fill-rule:nonzero;stroke:#000000;stroke-width:4;stroke-linecap:round;stroke-linejoin:round;stroke-miterlimit:4;stroke-dasharray:none;stroke-opacity:1" />
    <path
       d="M 111.6875,107.53125 C 56.369221,108.65231 32.500002,144.87514 32.5,189.34375 C 32.5,209.19487 43.324503,227.41849 57.65625,241.59375 C 27.132065,228.65938 3.0579226,203.45455 -8.375,172.1875 C -5.4671302,235.8702 47.13438,286.6875 111.53125,286.6875 C 177.79154,286.68751 231.5625,232.91649 231.5625,166.65625 C 231.5625,152.18853 229.01028,138.31628 224.3125,125.46875 C 224.39665,127.31156 224.46875,129.16779 224.46875,131.03125 C 224.46875,163.56861 211.48124,193.09286 190.4375,214.71875 C 194.04333,206.7308 196.1875,198.1975 196.1875,189.34375 C 196.1875,144.16929 171.56634,107.53125 114.34375,107.53125 C 113.4498,107.53125 112.56557,107.51346 111.6875,107.53125 z"
       transform="translate(239.73628,384.06586)"
       id="path3221"
       style="opacity:1;fill:#000000;fill-opacity:0.31372549;fill-rule:nonzero;stroke:none;stroke-width:4;stroke-linecap:round;stroke-linejoin:round;stroke-miterlimit:4;stroke-dasharray:none;stroke-opacity:1" />
    <path
       d="M 359.45331,671.27549 C 359.45331,680.36627 374.11864,680.65684 392.18842,680.65684 C 410.2582,680.65684 424.92354,681.35033 424.92354,671.27549 C 424.92354,653.55955 410.2582,639.18139 392.18842,639.18139 C 374.11864,639.18139 359.45331,653.55955 359.45331,671.27549 z"
       id="path3172"
       style="fill:#333333;fill-opacity:1;fill-rule:nonzero;stroke:#000000;stroke-width:3.99999976;stroke-linecap:round;stroke-linejoin:round;stroke-miterlimit:4;stroke-opacity:1" />
    <path
       d="M 344.4555,671.27549 C 344.4555,680.36627 329.79017,680.65684 311.72039,680.65684 C 293.65061,680.65684 278.98527,681.35033 278.98527,671.27549 C 278.98527,653.55955 293.65061,639.18139 311.72039,639.18139 C 329.79017,639.18139 344.4555,653.55955 344.4555,671.27549 z"
       id="path3329"
       style="fill:#333333;fill-opacity:1;fill-rule:nonzero;stroke:#000000;stroke-width:3.99999976;stroke-linecap:round;stroke-linejoin:round;stroke-miterlimit:4;stroke-opacity:1" />
    <path
       d="M 299.12996,680.0559 C 299.12996,663.68834 308.57279,653.61599 308.57279,653.61599 C 308.57279,653.61599 304.79566,667.46547 305.42518,680.0559 L 299.12996,680.0559 z"
       id="path3331"
       style="fill:#000000;fill-opacity:0.31372549;fill-rule:evenodd;stroke:#000000;stroke-width:4;stroke-linecap:butt;stroke-linejoin:round;stroke-miterlimit:4;stroke-dasharray:none;stroke-opacity:1" />
    <path
       d="M 353.05276,623.66426 C 306.64933,620.31439 274.55157,635.1015 274.55157,635.1015 C 274.55157,635.1015 284.79285,634.85391 290.56871,635.7729 C 279.73804,643.18546 276.18705,657.89569 276.18705,657.89569 C 276.18705,657.89569 288.26491,644.95139 300.64722,640.34716 C 290.13429,654.32853 288.73404,677.30764 288.73404,677.30764 C 288.73404,677.30764 300.8237,641.58254 323.41268,634.18407 C 340.6339,628.54369 358.84717,631.86099 358.84717,631.86099 C 358.84717,631.86099 394.96362,629.36987 407.33799,650.93662 C 408.96722,651.70837 408.80619,637.8389 398.55315,632.88915 L 426.18431,631.45868 C 406.03177,622.9734 353.05276,623.66426 353.05276,623.66426 z"
       id="path2399"
       style="fill:#44aa00;fill-opacity:1;fill-rule:evenodd;stroke:#000000;stroke-width:4;stroke-linecap:butt;stroke-linejoin:round;stroke-miterlimit:4;stroke-dasharray:none;stroke-opacity:1" />
    <path
       d="M 348.61128,478.40961 C 318.48203,479.0202 297.67961,490.06288 284.98628,507.15961 C 260.92184,504.57182 240.92378,530.78461 240.92378,530.78461 C 240.92378,530.78461 259.81491,540.23093 272.98628,532.31586 C 270.58705,541.02758 269.42378,550.42181 269.42378,560.22211 C 269.42378,605.39659 325.54928,642.06586 351.26753,642.06586 C 377.98414,642.06586 433.11128,605.39659 433.11128,560.22211 C 433.11128,550.42181 431.94739,541.02758 429.54878,532.31586 C 442.72015,540.23093 461.58003,530.78461 461.58003,530.78461 C 461.58003,530.78461 441.60881,504.58005 417.54878,507.15961 C 404.48712,489.56462 382.8411,478.40961 351.26753,478.40961 C 350.37358,478.40961 349.48935,478.39182 348.61128,478.40961 z"
       id="path3155"
       style="fill:#333333;fill-opacity:1;fill-rule:nonzero;stroke:#000000;stroke-width:4;stroke-linecap:round;stroke-linejoin:round;stroke-miterlimit:4;stroke-opacity:1" />
    <path
       d="M 404.77885,680.0559 C 404.77885,663.68834 395.33602,653.61599 395.33602,653.61599 C 395.33602,653.61599 399.11315,667.46547 398.48363,680.0559 L 404.77885,680.0559 z"
       id="path3174"
       style="fill:#000000;fill-opacity:0.31372549;fill-rule:evenodd;stroke:#000000;stroke-width:4;stroke-linecap:butt;stroke-linejoin:round;stroke-miterlimit:4;stroke-dasharray:none;stroke-opacity:1" />
    <path
       d="M 347.6435,548.23558 C 347.64723,560.75453 337.49967,570.90511 324.98073,570.90511 C 312.46178,570.90511 302.31422,560.75453 302.31795,548.23558 C 302.31422,535.71664 312.46178,525.56606 324.98073,525.56606 C 337.49967,525.56606 347.64723,535.71664 347.6435,548.23558 z"
       id="path3157"
       style="opacity:1;fill:#ffffff;fill-opacity:1;fill-rule:nonzero;stroke:#000000;stroke-width:3.99999952;stroke-linecap:round;stroke-linejoin:round;stroke-miterlimit:4;stroke-dasharray:none;stroke-opacity:1" />
    <path
       d="M 400.3757,548.23558 C 400.37943,560.75453 390.23187,570.90511 377.71293,570.90511 C 365.19398,570.90511 355.04642,560.75453 355.05015,548.23558 C 355.04642,535.71664 365.19398,525.56606 377.71293,525.56606 C 390.23187,525.56606 400.37943,535.71664 400.3757,548.23558 z"
       id="path3159"
       style="opacity:1;fill:#ffffff;fill-opacity:1;fill-rule:nonzero;stroke:#000000;stroke-width:3.99999952;stroke-linecap:round;stroke-linejoin:round;stroke-miterlimit:4;stroke-dasharray:none;stroke-opacity:1" />
    <path
       d="M 380.23101,552.23558 C 380.23226,556.40856 376.84974,559.79209 372.67676,559.79209 C 368.50378,559.79209 365.12126,556.40856 365.12251,552.23558 C 365.12126,548.0626 368.50378,544.67908 372.67676,544.67908 C 376.84974,544.67908 380.23226,548.0626 380.23101,552.23558 z"
       id="path3161"
       style="opacity:1;fill:#000000;fill-opacity:1;fill-rule:nonzero;stroke:none;stroke-width:47.66669083;stroke-linecap:round;stroke-linejoin:round;stroke-miterlimit:4;stroke-dasharray:none;stroke-opacity:1" />
    <path
       d="M 338.20067,552.23558 C 338.20192,556.40856 334.8194,559.79209 330.64642,559.79209 C 326.47344,559.79209 323.09092,556.40856 323.09217,552.23558 C 323.09092,548.0626 326.47344,544.67908 330.64642,544.67908 C 334.8194,544.67908 338.20192,548.0626 338.20067,552.23558 z"
       id="path3163"
       style="opacity:1;fill:#000000;fill-opacity:1;fill-rule:nonzero;stroke:none;stroke-width:47.66669083;stroke-linecap:round;stroke-linejoin:round;stroke-miterlimit:4;stroke-dasharray:none;stroke-opacity:1" />
    <path
       d="M 429.83003,533.40961 L 427.95503,536.06586 C 428.20391,539.14134 428.29878,542.2685 428.29878,545.44086 C 428.29878,590.61535 373.17164,627.28461 346.45503,627.28461 C 325.74922,627.28463 285.3583,603.52896 270.39253,570.69086 C 278.00834,610.93714 327.56443,642.06587 351.26753,642.06586 C 377.98414,642.06586 433.11128,605.39656 433.11128,560.22211 C 433.11128,550.83056 432.0359,541.81185 429.83003,533.40961 z"
       id="path3231"
       style="fill:#000000;fill-opacity:0.31372549;fill-rule:nonzero;stroke:none;stroke-width:4;stroke-linecap:round;stroke-linejoin:round;stroke-miterlimit:4;stroke-opacity:1" />
    <path
       d="M 367.86847,612.86692 C 365.57575,616.84001 361.36822,618.70552 358.4717,617.03321 C 355.57516,615.3609 355.08698,610.78431 357.38141,606.81222 C 359.67414,602.83912 363.88167,600.97361 366.7782,602.64592 C 369.67473,604.31823 370.16291,608.89482 367.86847,612.86692 z"
       id="path2398"
       style="opacity:1;fill:#000000;fill-opacity:1;fill-rule:nonzero;stroke:none;stroke-width:47.66669083;stroke-linecap:round;stroke-linejoin:round;stroke-miterlimit:4;stroke-dasharray:none;stroke-opacity:1" />
    <path
       d="M 335.13142,612.86692 C 337.42414,616.84001 341.63167,618.70552 344.52819,617.03321 C 347.42473,615.3609 347.91291,610.78431 345.61848,606.81222 C 343.32575,602.83912 339.11822,600.97361 336.22169,602.64592 C 333.32516,604.31823 332.83698,608.89482 335.13142,612.86692 z"
       id="path2412"
       style="opacity:1;fill:#000000;fill-opacity:1;fill-rule:nonzero;stroke:none;stroke-width:47.66669083;stroke-linecap:round;stroke-linejoin:round;stroke-miterlimit:4;stroke-dasharray:none;stroke-opacity:1" />
    <path
       d="M 276.13784,641.01688 C 272.83815,640.67142 269.8601,643.05656 269.51464,646.35627 C 269.4594,646.88397 269.49524,647.40103 269.57277,647.90197 C 266.79125,648.17459 264.47372,650.38779 264.17145,653.27503 C 263.82599,656.57474 266.24548,659.52496 269.54517,659.87041 C 270.29776,659.9492 271.01081,659.87238 271.70092,659.68762 C 271.53103,662.86109 273.87653,665.66541 277.07286,666.00004 C 280.37258,666.34548 283.32278,663.92603 283.66824,660.6263 C 283.75461,659.80137 283.67383,658.99326 283.44608,658.24649 C 286.01875,657.791 288.11375,655.67931 288.39925,652.9522 C 288.7447,649.65248 286.32524,646.70228 283.02553,646.35682 C 282.49903,646.3017 281.98297,646.30678 281.48307,646.38386 C 281.21046,643.60234 279.02509,641.31915 276.13784,641.01688 z M 276.43083,652.92461 C 276.4707,653.33153 276.53394,653.7287 276.65231,654.11037 C 276.47971,654.14098 276.30645,654.1685 276.13876,654.2137 C 276.16155,653.788 276.14629,653.35776 276.08243,652.95098 C 276.1968,652.93977 276.3182,652.94224 276.43083,652.92461 z"
       id="path3181"
       style="opacity:1;fill:#ffff00;fill-opacity:1;fill-rule:nonzero;stroke:#000000;stroke-width:4;stroke-linecap:round;stroke-linejoin:round;stroke-miterlimit:4;stroke-dasharray:none;stroke-opacity:1" />
  </g>
</svg>
