<?xml version="1.0" encoding="UTF-8" standalone="no"?>
<!-- Created with Inkscape (http://www.inkscape.org/) -->
<svg
   xmlns:dc="http://purl.org/dc/elements/1.1/"
   xmlns:cc="http://web.resource.org/cc/"
   xmlns:rdf="http://www.w3.org/1999/02/22-rdf-syntax-ns#"
   xmlns:svg="http://www.w3.org/2000/svg"
   xmlns="http://www.w3.org/2000/svg"
   xmlns:xlink="http://www.w3.org/1999/xlink"
   xmlns:sodipodi="http://inkscape.sourceforge.net/DTD/sodipodi-0.dtd"
   xmlns:inkscape="http://www.inkscape.org/namespaces/inkscape"
   width="500.00000px"
   height="500.00000px"
   id="svg2"
   sodipodi:version="0.32"
   inkscape:version="0.42"
   sodipodi:docbase="/home/the_structorr/Grafika/svg"
   sodipodi:docname="sheep.svg">
  <defs
     id="defs4">
    <linearGradient
       id="linearGradient2388">
      <stop
         style="stop-color:#ff0f0f;stop-opacity:1;"
         offset="0"
         id="stop2390" />
      <stop
         style="stop-color:#790000;stop-opacity:1.0000000;"
         offset="1.0000000"
         id="stop2392" />
    </linearGradient>
    <linearGradient
       inkscape:collect="always"
       id="linearGradient2352">
      <stop
         style="stop-color:#ffffff;stop-opacity:1;"
         offset="0"
         id="stop2354" />
      <stop
         style="stop-color:#ffffff;stop-opacity:0;"
         offset="1"
         id="stop2356" />
    </linearGradient>
    <linearGradient
       id="linearGradient2342">
      <stop
         style="stop-color:#c98b2b;stop-opacity:0.0000000;"
         offset="0.0000000"
         id="stop2344" />
      <stop
         style="stop-color:#c98b2b;stop-opacity:1.0000000;"
         offset="1.0000000"
         id="stop2346" />
    </linearGradient>
    <linearGradient
       id="linearGradient2331">
      <stop
         style="stop-color:#fdfdfd;stop-opacity:1;"
         offset="0"
         id="stop2333" />
      <stop
         style="stop-color:#dcdcdc;stop-opacity:1.0000000;"
         offset="1.0000000"
         id="stop2335" />
    </linearGradient>
    <radialGradient
       inkscape:collect="always"
       xlink:href="#linearGradient2331"
       id="radialGradient1390"
       gradientUnits="userSpaceOnUse"
       gradientTransform="matrix(1.297868,5.787679e-16,-3.926420e-16,0.880487,-101.9489,50.30802)"
       spreadMethod="reflect"
       cx="337.75723"
       cy="307.01065"
       fx="337.75723"
       fy="307.01065"
       r="196.42906" />
    <radialGradient
       inkscape:collect="always"
       xlink:href="#linearGradient2352"
       id="radialGradient1392"
       gradientUnits="userSpaceOnUse"
       gradientTransform="matrix(1.391637,3.929376e-16,-2.651947e-16,0.962287,-237.8279,-81.51627)"
       spreadMethod="reflect"
       cx="455.35910"
       cy="387.82999"
       fx="455.35910"
       fy="387.82999"
       r="196.42906" />
    <radialGradient
       inkscape:collect="always"
       xlink:href="#linearGradient2342"
       id="radialGradient1394"
       gradientUnits="userSpaceOnUse"
       gradientTransform="matrix(1.262588,-9.281897e-16,9.656487e-16,1.313543,-56.57130,-74.94638)"
       cx="215.43732"
       cy="234.51016"
       fx="215.43732"
       fy="234.51016"
       r="122.48233" />
    <linearGradient
       inkscape:collect="always"
       xlink:href="#linearGradient2388"
       id="linearGradient1396"
       gradientUnits="userSpaceOnUse"
       x1="318.66293"
       y1="450.35132"
       x2="318.66293"
       y2="252.35132" />
    <radialGradient
       inkscape:collect="always"
       xlink:href="#linearGradient2331"
       id="radialGradient1398"
       gradientUnits="userSpaceOnUse"
       gradientTransform="matrix(0.288843,0.155644,-0.104765,0.194421,235.7517,94.33565)"
       spreadMethod="reflect"
       cx="366.73050"
       cy="622.25092"
       fx="366.73050"
       fy="622.25092"
       r="196.42906" />
    <radialGradient
       inkscape:collect="always"
       xlink:href="#linearGradient2331"
       id="radialGradient1400"
       gradientUnits="userSpaceOnUse"
       gradientTransform="matrix(4.960358e-3,0.437112,-0.332240,3.770389e-3,477.5884,192.0540)"
       spreadMethod="reflect"
       cx="209.01430"
       cy="388.04880"
       fx="209.01430"
       fy="388.04880"
       r="196.42906" />
    <linearGradient
       inkscape:collect="always"
       xlink:href="#linearGradient2352"
       id="linearGradient1402"
       gradientUnits="userSpaceOnUse"
       x1="229.47342"
       y1="173.93208"
       x2="236.78149"
       y2="173.93208" />
    <linearGradient
       inkscape:collect="always"
       xlink:href="#linearGradient2352"
       id="linearGradient1404"
       gradientUnits="userSpaceOnUse"
       x1="229.47342"
       y1="173.93208"
       x2="236.78149"
       y2="173.93208" />
    <linearGradient
       inkscape:collect="always"
       xlink:href="#linearGradient2352"
       id="linearGradient1406"
       gradientUnits="userSpaceOnUse"
       x1="379.02084"
       y1="365.81250"
       x2="383.99304"
       y2="288.24133" />
  </defs>
  <sodipodi:namedview
     id="base"
     pagecolor="#ffffff"
     bordercolor="#666666"
     borderopacity="1.0"
     inkscape:pageopacity="0.0"
     inkscape:pageshadow="2"
     inkscape:zoom="0.68800000"
     inkscape:cx="250.00000"
     inkscape:cy="250.00000"
     inkscape:document-units="px"
     inkscape:current-layer="layer1"
     inkscape:window-width="750"
     inkscape:window-height="513"
     inkscape:window-x="36"
     inkscape:window-y="54" />
  <metadata
     id="metadata7">
    <rdf:RDF>
      <cc:Work
         rdf:about="">
        <dc:format>image/svg+xml</dc:format>
        <dc:type
           rdf:resource="http://purl.org/dc/dcmitype/StillImage" />
      </cc:Work>
    </rdf:RDF>
  </metadata>
  <g
     inkscape:label="Layer 1"
     inkscape:groupmode="layer"
     id="layer1">
    <g
       id="g1358"
       transform="matrix(0.924795,0.000000,0.000000,0.924795,-81.16829,-78.79786)"
       style="stroke:none">
      <rect
         style="opacity:1.0000000;color:#000000;fill:#000000;fill-opacity:1.0000000;fill-rule:evenodd;stroke:none;stroke-width:0.50000000;stroke-linecap:round;stroke-linejoin:round;marker:none;marker-start:none;marker-mid:none;marker-end:none;stroke-miterlimit:4.0000000;stroke-dasharray:none;stroke-dashoffset:0.0000000;stroke-opacity:1.0000000;visibility:visible;display:inline;overflow:visible"
         id="rect2323"
         width="24.805840"
         height="100.82373"
         x="440.75931"
         y="460.30414" />
      <rect
         y="479.50854"
         x="488.77057"
         height="100.82373"
         width="24.805840"
         id="rect2325"
         style="opacity:1.0000000;color:#000000;fill:#000000;fill-opacity:1.0000000;fill-rule:evenodd;stroke:none;stroke-width:0.50000000;stroke-linecap:round;stroke-linejoin:round;marker:none;marker-start:none;marker-mid:none;marker-end:none;stroke-miterlimit:4.0000000;stroke-dasharray:none;stroke-dashoffset:0.0000000;stroke-opacity:1.0000000;visibility:visible;display:inline;overflow:visible" />
      <path
         id="path2327"
         d="M 450.34282,533.35597 C 434.66233,533.35597 425.27760,535.00171 421.94917,559.24313 C 420.48829,569.88312 423.42718,576.42098 428.33285,580.27398 C 429.32075,575.83902 431.87825,566.28034 433.58078,563.23780 C 435.16903,574.79547 431.96588,577.18413 433.61994,583.17209 C 439.43071,585.22028 446.44145,585.10615 452.84928,583.48542 C 469.36526,579.30794 478.73644,581.95648 478.73644,559.24313 C 478.73644,536.57591 466.02328,533.35600 450.34282,533.35597 z "
         style="color:#000000;fill:#000000;fill-opacity:1.0000000;fill-rule:evenodd;stroke:none;stroke-width:0.50000000;stroke-linecap:round;stroke-linejoin:round;marker:none;marker-start:none;marker-mid:none;marker-end:none;stroke-miterlimit:4.0000000;stroke-dashoffset:0.0000000;stroke-opacity:1.0000000;visibility:visible;display:inline;overflow:visible" />
      <path
         style="color:#000000;fill:#000000;fill-opacity:1.0000000;fill-rule:evenodd;stroke:none;stroke-width:0.50000000;stroke-linecap:round;stroke-linejoin:round;marker:none;marker-start:none;marker-mid:none;marker-end:none;stroke-miterlimit:4.0000000;stroke-dashoffset:0.0000000;stroke-opacity:1.0000000;visibility:visible;display:inline;overflow:visible"
         d="M 496.36214,554.96106 C 480.13186,554.96106 470.41808,556.66451 466.97296,581.75587 C 465.46084,592.76893 468.50279,599.53602 473.58047,603.52411 C 474.60298,598.93365 477.25017,589.03981 479.01239,585.89060 C 480.65632,597.85350 477.34086,600.32593 479.05293,606.52384 C 485.06743,608.64384 492.32399,608.52571 498.95648,606.84813 C 516.05156,602.52420 525.75129,605.26561 525.75129,581.75587 C 525.75129,558.29389 512.59239,554.96108 496.36214,554.96106 z "
         id="path2329" />
      <rect
         y="460.30414"
         x="255.31567"
         height="100.82373"
         width="24.805840"
         id="rect2291"
         style="opacity:1.0000000;color:#000000;fill:#000000;fill-opacity:1.0000000;fill-rule:evenodd;stroke:none;stroke-width:0.50000000;stroke-linecap:round;stroke-linejoin:round;marker:none;marker-start:none;marker-mid:none;marker-end:none;stroke-miterlimit:4.0000000;stroke-dasharray:none;stroke-dashoffset:0.0000000;stroke-opacity:1.0000000;visibility:visible;display:inline;overflow:visible" />
      <rect
         style="opacity:1.0000000;color:#000000;fill:#000000;fill-opacity:1.0000000;fill-rule:evenodd;stroke:none;stroke-width:0.50000000;stroke-linecap:round;stroke-linejoin:round;marker:none;marker-start:none;marker-mid:none;marker-end:none;stroke-miterlimit:4.0000000;stroke-dasharray:none;stroke-dashoffset:0.0000000;stroke-opacity:1.0000000;visibility:visible;display:inline;overflow:visible"
         id="rect2293"
         width="24.805840"
         height="100.82373"
         x="303.32697"
         y="479.50854" />
      <path
         style="color:#000000;fill:#000000;fill-opacity:1.0000000;fill-rule:evenodd;stroke:none;stroke-width:0.50000000;stroke-linecap:round;stroke-linejoin:round;marker:none;marker-start:none;marker-mid:none;marker-end:none;stroke-miterlimit:4.0000000;stroke-dashoffset:0.0000000;stroke-opacity:1.0000000;visibility:visible;display:inline;overflow:visible"
         d="M 264.89916,533.35597 C 249.21867,533.35597 239.83393,535.00171 236.50551,559.24313 C 235.04463,569.88312 237.98351,576.42098 242.88919,580.27398 C 243.87708,575.83902 246.43458,566.28034 248.13712,563.23780 C 249.72536,574.79547 246.52222,577.18413 248.17628,583.17209 C 253.98705,585.22028 260.99779,585.10615 267.40562,583.48542 C 283.92160,579.30794 293.29278,581.95648 293.29278,559.24313 C 293.29278,536.57591 280.57961,533.35600 264.89916,533.35597 z "
         id="path2315" />
      <path
         id="path2299"
         d="M 310.91847,554.96106 C 294.68819,554.96106 284.97441,556.66451 281.52929,581.75587 C 280.01718,592.76893 283.05912,599.53602 288.13680,603.52411 C 289.15932,598.93365 291.80651,589.03981 293.56873,585.89060 C 295.21266,597.85350 291.89720,600.32593 293.60926,606.52384 C 299.62377,608.64384 306.88032,608.52571 313.51281,606.84813 C 330.60789,602.52420 340.30763,605.26561 340.30763,581.75587 C 340.30763,558.29389 327.14873,554.96108 310.91847,554.96106 z "
         style="color:#000000;fill:#000000;fill-opacity:1.0000000;fill-rule:evenodd;stroke:none;stroke-width:0.50000000;stroke-linecap:round;stroke-linejoin:round;marker:none;marker-start:none;marker-mid:none;marker-end:none;stroke-miterlimit:4.0000000;stroke-dashoffset:0.0000000;stroke-opacity:1.0000000;visibility:visible;display:inline;overflow:visible" />
      <path
         id="path2224"
         d="M 295.09375,95.968750 C 288.98605,99.638423 282.53785,102.50265 275.36137,102.59569 C 266.48947,104.59320 258.81961,112.34730 257.84375,121.53125 C 244.86817,122.79234 235.51252,137.75453 239.43750,150.03125 C 204.36926,159.61628 175.73224,183.77543 151.28257,209.72187 C 127.73378,232.16213 114.53135,265.30324 117.97793,297.82138 C 121.35583,340.04661 151.42265,377.91064 190.21875,393.87500 C 187.65100,399.69184 188.19811,407.13697 192.28125,412.12500 C 184.92133,420.01822 186.58381,434.42000 195.93750,440.03125 C 193.06704,449.49978 196.42537,460.78557 205.84375,465.03125 C 208.67883,471.99118 214.63897,477.34083 217.66011,484.25116 C 220.91496,488.33923 225.61980,491.60003 230.93750,492.03125 C 234.18328,500.50149 244.49087,505.08345 253.09375,502.87500 C 257.09565,513.26645 271.39613,518.15851 280.75000,511.87500 C 290.91940,513.40373 300.57247,517.90699 310.77353,518.65722 C 315.71179,517.51542 321.10264,515.06665 325.40770,519.06288 C 332.61574,524.05661 342.31807,522.11737 348.70153,517.03395 C 354.98121,514.67289 360.32124,519.13166 365.92919,520.46333 C 378.32522,521.75422 390.90343,523.01831 403.24497,521.28766 C 409.21447,522.54158 415.13836,521.48213 420.03125,517.81250 C 425.30475,514.92396 430.05975,517.85046 434.46875,520.62500 C 440.93640,522.95251 448.81925,521.98594 453.90625,517.15625 C 459.48650,517.27630 464.85766,514.33610 469.21896,519.33149 C 477.25616,522.88096 487.96779,520.50913 492.96875,513.06250 C 500.92330,518.40443 512.45199,517.15853 518.52954,509.63780 C 524.19178,507.19184 530.69447,506.11241 534.48861,500.65367 C 540.50828,494.92634 551.25807,496.83742 554.95957,488.30586 C 558.43915,483.51715 566.12671,483.94845 568.89421,478.00889 C 572.87358,473.38844 572.74581,466.81226 572.87375,461.43325 C 574.87078,456.18956 578.58257,453.00429 583.31250,450.46875 C 589.28211,444.62798 591.80650,434.51090 586.93750,427.25000 C 590.16419,419.67333 599.24424,412.82496 595.03649,403.63335 C 591.93848,394.54010 594.09477,383.84830 588.56250,375.59375 C 593.94758,368.43419 594.02244,358.54877 588.48795,351.47328 C 587.50886,341.84669 583.01650,332.30775 575.81250,325.50000 C 576.65829,317.15243 574.19823,307.85226 565.90309,304.16248 C 560.03375,301.68781 561.79908,293.55169 556.21875,290.18750 C 549.76424,285.74810 544.12833,280.39886 538.58675,274.90721 C 534.14478,265.79651 522.10254,263.67539 513.43750,267.50000 C 509.42884,260.69737 502.18180,256.02613 494.25000,256.43750 C 488.80738,252.06600 484.09320,245.67812 476.18750,246.37500 C 471.41002,244.80071 466.07394,251.04195 462.96875,248.68750 C 457.17883,243.08158 447.92446,241.50745 440.65625,245.03125 C 436.01292,243.47737 431.84270,239.81387 426.68750,240.56250 C 423.57652,235.64711 422.76408,229.41095 418.71875,224.87500 C 417.87608,219.17385 425.29762,216.04676 424.73106,209.92791 C 427.20304,204.74502 420.82413,198.01253 426.84375,194.96875 C 435.56192,184.14525 431.13238,164.63045 417.06250,160.93750 C 413.12594,155.93644 410.87992,148.66193 404.27850,146.78409 C 401.23537,140.29660 399.68443,132.49884 392.59259,128.98174 C 387.39744,124.90205 379.13898,127.10129 375.62500,120.78125 C 371.46481,117.61903 366.51062,115.34314 361.21875,115.21875 C 356.75754,105.14882 344.32100,99.785064 333.81250,102.59375 C 327.56437,97.274576 318.63806,95.466817 310.81250,97.937500 C 305.96013,95.550030 300.33587,95.570526 295.09375,95.968750 z "
         style="color:#000000;fill:#000000;fill-opacity:1.0000000;fill-rule:evenodd;stroke:none;stroke-width:1.4335296;stroke-linecap:round;stroke-linejoin:round;marker:none;marker-start:none;marker-mid:none;marker-end:none;stroke-miterlimit:4.0000000;stroke-dashoffset:0.0000000;stroke-opacity:1.0000000;visibility:visible;display:inline;overflow:visible" />
      <path
         id="path2051"
         d="M 195.21371,180.36113 C 232.50708,156.07667 257.48818,145.83866 275.15682,172.97222 C 287.58817,192.06291 264.51105,224.57243 227.21767,248.85690 C 189.92432,273.14134 156.90027,288.61669 144.46895,269.52603 C 132.03763,250.43537 157.92033,204.64558 195.21371,180.36113 z "
         style="color:#000000;fill:#dedede;fill-opacity:1.0000000;fill-rule:evenodd;stroke:none;stroke-width:1.2754596;stroke-linecap:round;stroke-linejoin:round;marker:none;marker-start:none;marker-mid:none;marker-end:none;stroke-miterlimit:4.0000000;stroke-dashoffset:0.0000000;stroke-opacity:1.0000000;visibility:visible;display:inline;overflow:visible" />
      <path
         d="M 423.09375,245.21875 C 416.54409,245.30874 416.13237,255.94799 409.25130,253.41770 C 381.02671,252.53738 352.72624,249.11197 324.51088,251.05333 C 276.82684,256.85269 236.30967,292.16163 217.69826,335.53179 C 210.63109,351.41972 206.37187,368.47267 204.75000,385.78125 C 192.72688,386.94687 187.87470,404.97205 197.65625,411.90625 C 192.96049,416.59661 189.37174,423.32460 192.56018,429.94604 C 193.35186,434.49832 199.87752,437.13224 201.15625,439.31250 C 195.66525,447.20425 200.15779,460.13826 209.78125,462.06250 C 209.56624,468.01700 215.20092,471.75617 218.08956,475.80087 C 219.23442,483.04802 226.39291,488.77188 233.71875,488.28125 C 235.57427,497.45587 247.53756,502.36101 255.53125,497.84375 C 257.15032,508.80953 271.45010,514.95908 280.06250,507.62500 C 286.98186,509.76088 294.24269,510.37015 301.09375,512.43750 C 306.66707,515.94899 313.21309,515.24246 318.62959,512.00401 C 325.35404,512.75626 331.11744,520.44956 338.62429,517.68104 C 343.68276,517.27790 345.92377,510.28441 351.40223,512.90798 C 357.08667,511.38286 360.81228,513.53661 365.21213,516.58510 C 373.74797,517.63352 382.41685,517.11943 390.94334,518.47270 C 396.67571,519.22992 402.48729,515.13475 408.25000,518.06250 C 414.41610,518.67129 417.91730,511.57715 424.03125,513.12500 C 429.49153,509.67154 431.58004,515.82313 436.27703,517.14474 C 442.00301,519.10573 449.09972,517.55823 452.90625,512.68750 C 457.72937,515.95024 464.13132,507.74944 466.96875,513.37500 C 474.39528,520.07352 488.34972,517.23464 491.53125,507.59375 C 497.27442,511.20689 505.07479,515.19881 511.32017,510.40986 C 514.85919,506.94792 517.89494,503.36503 523.28125,503.90625 C 530.53242,501.72002 533.36976,492.83594 541.53991,492.75782 C 547.92088,491.97804 552.02202,487.28284 554.37500,481.68750 C 564.24099,482.03785 572.03350,470.19083 567.56250,461.25000 C 572.46956,459.17894 570.60258,451.13944 575.46875,450.78125 C 584.29252,447.66612 589.11920,435.23936 582.59375,427.81250 C 582.95728,422.08303 587.35963,419.43649 590.23165,415.22192 C 592.92106,410.54959 592.41170,404.24093 589.12500,399.96875 C 590.87856,394.06201 587.23795,388.18291 587.81250,382.15625 C 585.44921,377.90627 581.22247,374.61105 586.96875,371.03125 C 590.44250,365.07772 588.98739,356.61135 583.50000,352.37500 C 585.90213,344.86418 579.92823,337.86193 576.56250,331.65625 C 571.47182,329.14503 570.34775,325.06389 572.00000,320.03125 C 572.33208,312.22517 564.36625,306.53011 558.46875,304.93750 C 559.06129,297.85646 553.82350,290.66899 546.81250,289.31250 C 544.80216,282.82744 536.11769,281.93560 534.28671,275.20949 C 529.10604,268.16838 518.77743,268.25768 512.03279,272.28828 C 508.05308,268.43592 506.27056,261.27100 499.36163,261.12673 C 494.20135,261.11979 489.03015,260.34585 486.99003,255.00268 C 481.02044,248.50531 469.17773,248.77180 463.81250,255.75000 C 459.92289,251.05863 455.45197,246.26477 448.71875,246.93750 C 442.72051,247.79729 439.20489,252.07978 434.66763,246.37100 C 431.20813,244.30010 426.91777,244.37572 423.09375,245.21875 z M 427.75632,248.42742 C 422.02771,248.42742 417.47360,252.52261 416.53181,257.79525 L 339.47929,253.99748 C 268.17535,253.99748 212.68971,318.49374 208.32967,389.36685 C 208.12269,389.35623 207.94861,389.28245 207.73890,389.28245 C 201.33418,389.28245 196.09241,394.32313 196.09241,400.50697 C 196.09241,404.71745 198.60913,408.21421 202.16884,410.12798 C 201.99001,410.90920 201.66247,411.65814 201.66247,412.49104 C 201.66247,413.17565 201.96246,413.78130 202.08445,414.43212 C 198.13136,416.21846 195.33286,419.98503 195.33286,424.47511 C 195.33286,430.65897 200.49026,435.69971 206.89495,435.69963 C 207.34091,435.69963 207.72797,435.49381 208.16088,435.44644 C 208.15861,435.53732 208.07648,435.60824 208.07648,435.69963 C 208.07648,436.53253 208.40402,437.28147 208.58285,438.06269 C 205.02312,439.97646 202.50642,443.47325 202.50642,447.68370 C 202.50642,453.86756 207.66380,458.90830 214.06852,458.90822 C 214.12545,458.90822 214.18057,458.90900 214.23731,458.90822 C 214.05188,459.70291 213.73094,460.42276 213.73094,461.27127 C 213.73094,466.31944 217.24490,470.50626 222.00164,471.90503 C 221.93477,472.39138 221.74845,472.83580 221.74845,473.33974 C 221.74845,479.52360 226.90586,484.47986 233.31055,484.47986 C 234.66735,484.47986 235.89778,484.21852 237.10832,483.80470 C 237.09225,484.04579 236.93953,484.23489 236.93953,484.47986 C 236.93953,490.66372 242.09690,495.70443 248.50162,495.70438 C 251.63552,495.70438 254.43065,494.44915 256.51914,492.49737 C 257.52334,493.04887 258.56387,493.43625 259.72614,493.67890 C 259.59403,494.35506 259.30417,494.99133 259.30417,495.70438 C 259.30417,501.88824 264.54597,506.92884 270.95066,506.92890 C 274.42284,506.92890 277.43202,505.38281 279.55894,503.04673 C 281.45435,504.34803 283.64054,505.32537 286.14174,505.32539 C 287.31940,505.32539 288.36187,504.96564 289.43313,504.65024 C 291.50495,506.51114 294.31553,507.68848 297.36625,507.68845 C 298.57719,507.68845 299.64437,507.34606 300.74205,507.01329 C 302.86885,509.34588 305.88109,510.89548 309.35032,510.89546 C 312.96142,510.89546 315.99886,509.17585 318.12739,506.67571 C 320.12116,508.23555 322.53680,509.29195 325.30095,509.29195 C 325.42094,509.29195 325.51944,509.21104 325.63853,509.20756 C 327.73992,512.07963 331.00556,514.10249 334.92197,514.10246 C 339.84963,514.10246 344.04323,511.11550 345.72451,506.92890 C 347.66092,508.32812 349.95754,509.29195 352.56050,509.29195 C 355.28255,509.29195 357.66996,508.27738 359.64966,506.76011 C 361.47808,510.62985 365.42419,513.34288 370.11463,513.34291 C 371.71581,513.34291 373.28399,512.98170 374.67195,512.41456 C 376.41194,513.42060 378.40528,514.10249 380.57959,514.10246 C 382.57687,514.10246 384.33931,513.52701 385.98086,512.66775 C 387.87628,513.96905 390.06247,514.94638 392.56366,514.94641 C 395.76602,514.94641 398.64987,513.68270 400.74996,511.65501 C 402.71190,513.12164 405.08332,514.10249 407.75474,514.10246 C 412.17962,514.10246 415.92538,511.63068 417.88212,508.11042 C 419.43186,508.85175 421.10015,509.29195 422.94582,509.29195 C 425.88270,509.29195 428.49676,508.16155 430.54135,506.42253 C 432.08739,510.85586 436.23319,514.10251 441.34390,514.10246 C 445.76878,514.10246 449.51453,511.63068 451.47128,508.11042 C 453.02101,508.85175 454.68933,509.29195 456.53497,509.29195 C 460.61628,509.29195 464.08749,507.13822 466.15599,504.05947 C 467.13599,509.28731 471.68486,513.34288 477.38050,513.34291 C 483.47687,513.34291 488.30620,508.73325 488.77381,502.96234 C 489.98486,503.37653 491.21413,503.72192 492.57158,503.72189 C 493.17490,503.72189 493.68092,503.47017 494.25948,503.38431 C 496.33608,506.41877 499.74990,508.53235 503.79610,508.53240 C 509.30869,508.53240 513.67211,504.73414 514.85183,499.75533 C 516.13366,500.22665 517.53464,500.51491 518.98717,500.51489 C 524.06937,500.51489 528.30574,497.31412 529.87411,492.91935 C 532.71394,492.40053 535.09274,490.99350 536.79449,488.86840 C 537.52436,489.00745 538.21683,489.29037 538.98876,489.29037 C 545.39348,489.29037 550.55085,484.24969 550.55085,478.06585 C 550.55085,477.85580 550.47829,477.68231 550.46646,477.47509 C 551.42618,477.72352 552.37973,478.06585 553.42028,478.06585 C 559.82500,478.06585 564.98235,473.10954 564.98238,466.92573 C 564.98238,464.31273 563.92122,461.99594 562.36614,460.08975 C 566.22883,458.27057 568.94891,454.55747 568.94894,450.13115 C 568.94894,449.15195 568.68738,448.25159 568.44257,447.34612 C 569.03930,447.43762 569.59158,447.68370 570.21486,447.68370 C 576.61958,447.68370 581.77693,442.64302 581.77696,436.45918 C 581.77696,433.19636 580.28715,430.40530 577.97919,428.35728 C 579.27584,426.54896 580.17345,424.47638 580.17345,422.11206 C 580.17345,421.03947 579.79023,420.05622 579.49829,419.07384 C 584.46012,417.80249 588.19097,413.71346 588.19097,408.52448 C 588.19097,405.36741 586.82493,402.54390 584.64638,400.50697 C 585.36483,399.05014 585.82791,397.41652 585.82791,395.69646 C 585.82791,393.31137 584.86678,391.18419 583.54925,389.36685 C 583.88758,388.31589 584.22441,387.23340 584.22441,386.07545 C 584.22441,382.41517 582.22850,379.34309 579.41390,377.29838 C 579.41390,375.96365 579.09852,374.68803 578.65435,373.50061 C 582.36796,371.63193 584.98393,368.03137 584.98396,363.71081 C 584.98396,359.34960 582.34071,355.60261 578.56995,353.75221 C 579.48536,352.15025 580.17345,350.39316 580.17345,348.43534 C 580.17345,344.98544 578.49630,342.05136 575.95371,339.99585 C 575.43338,335.70597 572.52844,332.19906 568.44257,330.79681 C 568.03280,329.10678 567.35127,327.53917 566.24830,326.23949 C 567.36185,324.51983 568.18938,322.67683 568.18938,320.50063 C 568.18938,314.31677 563.03198,309.27612 556.62728,309.27612 C 555.23211,309.27612 553.90013,309.59919 552.66073,310.03567 C 552.59980,309.95989 552.46866,309.94247 552.40754,309.86688 C 553.69232,308.06380 554.60181,306.05853 554.60181,303.70606 C 554.60181,297.78156 549.74725,293.04721 543.71487,292.65033 C 542.68344,287.89824 538.69366,284.32259 533.58749,283.87326 C 533.24899,277.98185 528.38012,273.23954 522.19418,273.23951 C 518.99182,273.23951 516.10797,274.50324 514.00788,276.53091 C 512.60220,275.94649 510.99291,275.68696 509.36616,275.68696 C 508.60933,275.68696 507.97282,275.97515 507.25629,276.10893 C 507.26247,275.95873 507.34068,275.83863 507.34068,275.68696 C 507.34068,269.50310 502.18331,264.46244 495.77859,264.46244 C 494.32605,264.46244 492.92507,264.75068 491.64324,265.22200 C 490.30502,263.72339 488.64610,262.58018 486.66394,261.93060 C 485.17268,257.40601 480.95520,254.08185 475.77700,254.08187 C 471.26559,254.08187 467.39985,256.60924 465.48083,260.24270 C 464.41070,259.92802 463.36569,259.65194 462.18943,259.65194 C 461.59483,259.65194 461.07215,259.90609 460.50153,259.98951 C 459.46916,254.82450 455.01087,250.87490 449.36141,250.87487 C 444.71294,250.87487 440.74765,253.55917 438.89645,257.37327 C 437.78184,252.31037 433.33073,248.42745 427.75632,248.42742 z "
         style="color:#000000;fill:#000000;fill-opacity:1.0000000;fill-rule:evenodd;stroke:none;stroke-width:1.4335296;stroke-linecap:round;stroke-linejoin:round;marker:none;marker-start:none;marker-mid:none;marker-end:none;stroke-miterlimit:4.0000000;stroke-dashoffset:0.0000000;stroke-opacity:1.0000000;visibility:visible;display:inline;overflow:visible"
         id="path2126" />
      <path
         id="rect2101"
         d="M 427.75632,248.42742 C 422.02771,248.42742 417.47360,252.52261 416.53181,257.79525 L 339.47929,253.99748 C 268.17535,253.99748 212.68971,318.49374 208.32967,389.36685 C 208.12269,389.35623 207.94861,389.28245 207.73890,389.28245 C 201.33418,389.28245 196.09241,394.32313 196.09241,400.50697 C 196.09241,404.71745 198.60913,408.21421 202.16884,410.12798 C 201.99001,410.90920 201.66247,411.65814 201.66247,412.49104 C 201.66247,413.17565 201.96246,413.78130 202.08445,414.43212 C 198.13136,416.21846 195.33286,419.98503 195.33286,424.47511 C 195.33286,430.65897 200.49026,435.69971 206.89495,435.69963 C 207.34091,435.69963 207.72797,435.49381 208.16088,435.44644 C 208.15861,435.53732 208.07648,435.60824 208.07648,435.69963 C 208.07648,436.53253 208.40402,437.28147 208.58285,438.06269 C 205.02312,439.97646 202.50642,443.47325 202.50642,447.68370 C 202.50642,453.86756 207.66380,458.90830 214.06852,458.90822 C 214.12545,458.90822 214.18057,458.90900 214.23731,458.90822 C 214.05188,459.70291 213.73094,460.42276 213.73094,461.27127 C 213.73094,466.31944 217.24490,470.50626 222.00164,471.90503 C 221.93477,472.39138 221.74845,472.83580 221.74845,473.33974 C 221.74845,479.52360 226.90586,484.47986 233.31055,484.47986 C 234.66735,484.47986 235.89778,484.21852 237.10832,483.80470 C 237.09225,484.04579 236.93953,484.23489 236.93953,484.47986 C 236.93953,490.66372 242.09690,495.70443 248.50162,495.70438 C 251.63552,495.70438 254.43065,494.44915 256.51914,492.49737 C 257.52334,493.04887 258.56387,493.43625 259.72614,493.67890 C 259.59403,494.35506 259.30417,494.99133 259.30417,495.70438 C 259.30417,501.88824 264.54597,506.92884 270.95066,506.92890 C 274.42284,506.92890 277.43202,505.38281 279.55894,503.04673 C 281.45435,504.34803 283.64054,505.32537 286.14174,505.32539 C 287.31940,505.32539 288.36187,504.96564 289.43313,504.65024 C 291.50495,506.51114 294.31553,507.68848 297.36625,507.68845 C 298.57719,507.68845 299.64437,507.34606 300.74205,507.01329 C 302.86885,509.34588 305.88109,510.89548 309.35032,510.89546 C 312.96142,510.89546 315.99886,509.17585 318.12739,506.67571 C 320.12116,508.23555 322.53680,509.29195 325.30095,509.29195 C 325.42094,509.29195 325.51944,509.21104 325.63853,509.20756 C 327.73992,512.07963 331.00556,514.10249 334.92197,514.10246 C 339.84963,514.10246 344.04323,511.11550 345.72451,506.92890 C 347.66092,508.32812 349.95754,509.29195 352.56050,509.29195 C 355.28255,509.29195 357.66996,508.27738 359.64966,506.76011 C 361.47808,510.62985 365.42419,513.34288 370.11463,513.34291 C 371.71581,513.34291 373.28399,512.98170 374.67195,512.41456 C 376.41194,513.42060 378.40528,514.10249 380.57959,514.10246 C 382.57687,514.10246 384.33931,513.52701 385.98086,512.66775 C 387.87628,513.96905 390.06247,514.94638 392.56366,514.94641 C 395.76602,514.94641 398.64987,513.68270 400.74996,511.65501 C 402.71190,513.12164 405.08332,514.10249 407.75474,514.10246 C 412.17962,514.10246 415.92538,511.63068 417.88212,508.11042 C 419.43186,508.85175 421.10015,509.29195 422.94582,509.29195 C 425.88270,509.29195 428.49676,508.16155 430.54135,506.42253 C 432.08739,510.85586 436.23319,514.10251 441.34390,514.10246 C 445.76878,514.10246 449.51453,511.63068 451.47128,508.11042 C 453.02101,508.85175 454.68933,509.29195 456.53497,509.29195 C 460.61628,509.29195 464.08749,507.13822 466.15599,504.05947 C 467.13599,509.28731 471.68486,513.34288 477.38050,513.34291 C 483.47687,513.34291 488.30620,508.73325 488.77381,502.96234 C 489.98486,503.37653 491.21413,503.72192 492.57158,503.72189 C 493.17490,503.72189 493.68092,503.47017 494.25948,503.38431 C 496.33608,506.41877 499.74990,508.53235 503.79610,508.53240 C 509.30869,508.53240 513.67211,504.73414 514.85183,499.75533 C 516.13366,500.22665 517.53464,500.51491 518.98717,500.51489 C 524.06937,500.51489 528.30574,497.31412 529.87411,492.91935 C 532.71394,492.40053 535.09274,490.99350 536.79449,488.86840 C 537.52436,489.00745 538.21683,489.29037 538.98876,489.29037 C 545.39348,489.29037 550.55085,484.24969 550.55085,478.06585 C 550.55085,477.85580 550.47829,477.68231 550.46646,477.47509 C 551.42618,477.72352 552.37973,478.06585 553.42028,478.06585 C 559.82500,478.06585 564.98235,473.10954 564.98238,466.92573 C 564.98238,464.31273 563.92122,461.99594 562.36614,460.08975 C 566.22883,458.27057 568.94891,454.55747 568.94894,450.13115 C 568.94894,449.15195 568.68738,448.25159 568.44257,447.34612 C 569.03930,447.43762 569.59158,447.68370 570.21486,447.68370 C 576.61958,447.68370 581.77693,442.64302 581.77696,436.45918 C 581.77696,433.19636 580.28715,430.40530 577.97919,428.35728 C 579.27584,426.54896 580.17345,424.47638 580.17345,422.11206 C 580.17345,421.03947 579.79023,420.05622 579.49829,419.07384 C 584.46012,417.80249 588.19097,413.71346 588.19097,408.52448 C 588.19097,405.36741 586.82493,402.54390 584.64638,400.50697 C 585.36483,399.05014 585.82791,397.41652 585.82791,395.69646 C 585.82791,393.31137 584.86678,391.18419 583.54925,389.36685 C 583.88758,388.31589 584.22441,387.23340 584.22441,386.07545 C 584.22441,382.41517 582.22850,379.34309 579.41390,377.29838 C 579.41390,375.96365 579.09852,374.68803 578.65435,373.50061 C 582.36796,371.63193 584.98393,368.03137 584.98396,363.71081 C 584.98396,359.34960 582.34071,355.60261 578.56995,353.75221 C 579.48536,352.15025 580.17345,350.39316 580.17345,348.43534 C 580.17345,344.98544 578.49630,342.05136 575.95371,339.99585 C 575.43338,335.70597 572.52844,332.19906 568.44257,330.79681 C 568.03280,329.10678 567.35127,327.53917 566.24830,326.23949 C 567.36185,324.51983 568.18938,322.67683 568.18938,320.50063 C 568.18938,314.31677 563.03198,309.27612 556.62728,309.27612 C 555.23211,309.27612 553.90013,309.59919 552.66073,310.03567 C 552.59980,309.95989 552.46866,309.94247 552.40754,309.86688 C 553.69232,308.06380 554.60181,306.05853 554.60181,303.70606 C 554.60181,297.78156 549.74725,293.04721 543.71487,292.65033 C 542.68344,287.89824 538.69366,284.32259 533.58749,283.87326 C 533.24899,277.98185 528.38012,273.23954 522.19418,273.23951 C 518.99182,273.23951 516.10797,274.50324 514.00788,276.53091 C 512.60220,275.94649 510.99291,275.68696 509.36616,275.68696 C 508.60933,275.68696 507.97282,275.97515 507.25629,276.10893 C 507.26247,275.95873 507.34068,275.83863 507.34068,275.68696 C 507.34068,269.50310 502.18331,264.46244 495.77859,264.46244 C 494.32605,264.46244 492.92507,264.75068 491.64324,265.22200 C 490.30502,263.72339 488.64610,262.58018 486.66394,261.93060 C 485.17268,257.40601 480.95520,254.08185 475.77700,254.08187 C 471.26559,254.08187 467.39985,256.60924 465.48083,260.24270 C 464.41070,259.92802 463.36569,259.65194 462.18943,259.65194 C 461.59483,259.65194 461.07215,259.90609 460.50153,259.98951 C 459.46916,254.82450 455.01087,250.87490 449.36141,250.87487 C 444.71294,250.87487 440.74765,253.55917 438.89645,257.37327 C 437.78184,252.31037 433.33073,248.42745 427.75632,248.42742 z "
         style="color:#000000;fill:url(#radialGradient1390);fill-opacity:1.0000000;fill-rule:evenodd;stroke:none;stroke-width:1.4335296;stroke-linecap:round;stroke-linejoin:round;marker:none;marker-start:none;marker-mid:none;marker-end:none;stroke-miterlimit:4.0000000;stroke-dashoffset:0.0000000;stroke-opacity:1.0000000;visibility:visible;display:inline;overflow:visible" />
      <path
         id="path2280"
         d="M 424.87500,253.03125 C 420.50003,255.64394 419.02204,264.63264 412.03125,261.56250 C 383.48569,260.63214 354.89792,257.38071 326.34375,258.87500 C 283.20610,263.65765 246.57455,294.76535 227.68750,332.81250 C 219.00020,350.64723 214.03654,370.11272 212.31250,389.84375 C 209.19093,394.77257 199.61662,393.58027 200.00000,401.09375 C 202.18396,405.66718 207.70925,409.25698 205.56250,415.15625 C 203.40282,419.51517 196.45870,422.74737 200.53125,428.34375 C 203.97535,432.36305 213.91170,431.21645 212.21875,438.65625 C 210.26965,442.82297 203.37947,446.17723 211.40625,447.68750 C 215.91355,452.07235 220.72875,457.49163 227.80782,455.86368 C 233.32829,453.62173 237.91365,456.93837 243.31250,457.31250 C 249.06557,456.10521 254.38379,454.57698 259.64835,458.15669 C 265.68474,460.24622 271.01049,456.67448 275.84375,453.93750 C 282.74675,455.28682 290.57222,460.69364 296.80676,454.61288 C 300.53438,450.77353 305.28169,445.47377 311.00000,449.25000 C 317.26399,451.37728 321.80745,444.40366 327.45194,445.80762 C 332.56170,449.12503 334.09407,456.88048 341.29859,457.10370 C 348.33206,458.80826 354.57773,453.93318 358.50158,448.79999 C 365.21089,447.15893 373.92133,452.59997 379.03980,445.48473 C 382.07339,440.39485 390.31148,440.65994 390.29181,447.57604 C 395.08955,459.26409 415.33440,458.74882 417.91020,445.85458 C 418.27041,440.18688 423.75282,438.09217 428.59020,439.96400 C 436.98568,439.39596 440.59715,450.23573 449.40625,448.09375 C 456.31082,447.42933 460.92934,441.73937 462.99970,435.71103 C 468.64939,431.96304 476.33597,437.45619 481.75000,432.21875 C 486.13252,428.39544 488.00149,421.93748 494.33486,421.07454 C 498.63730,417.25793 503.84210,415.25696 509.56490,415.84902 C 517.08023,414.61417 521.63523,407.05925 521.72046,399.97662 C 525.98933,394.19557 534.46509,400.16321 539.30365,394.78175 C 546.57081,389.95321 546.50360,379.36641 541.53154,373.07474 C 541.97660,365.74848 553.67729,364.02230 551.46875,355.46875 C 550.64946,350.48925 554.44922,344.84008 559.96875,346.90625 C 564.40664,346.34115 572.32366,342.60060 570.46412,337.46826 C 566.48094,333.59032 559.53890,328.19075 563.87500,322.09375 C 565.20129,315.43264 557.47374,311.90514 552.06250,313.75000 C 544.29208,310.90777 555.06727,301.06082 547.01968,298.29817 C 541.65596,296.72589 539.27211,291.53458 535.12922,288.93961 C 529.68761,287.01074 529.20655,280.09175 524.65625,277.75000 C 518.49550,276.51461 512.95173,283.46192 506.95357,279.12089 C 501.42482,277.33237 503.21315,267.71843 496.09375,268.96875 C 487.68351,270.41962 483.30546,262.30950 477.59375,258.18750 C 470.64807,256.61208 466.88222,267.88868 459.60540,263.37210 C 455.20827,260.88586 454.01473,253.07562 447.50000,254.93750 C 443.98651,257.83356 437.21503,264.10955 434.40975,257.15382 C 433.03345,253.32777 428.55327,251.95784 424.87500,253.03125 z "
         style="color:#000000;fill:url(#radialGradient1392);fill-opacity:1.0000000;fill-rule:evenodd;stroke:none;stroke-width:1.4335296;stroke-linecap:round;stroke-linejoin:round;marker:none;marker-start:none;marker-mid:none;marker-end:none;stroke-miterlimit:4.0000000;stroke-dashoffset:0.0000000;stroke-opacity:1.0000000;visibility:visible;display:inline;overflow:visible" />
      <path
         d="M 242.06250,153.37500 C 218.80954,159.13923 198.23938,172.61766 179.72060,187.34197 C 159.59559,204.77416 141.41937,227.37509 137.43327,254.39795 C 135.74995,267.63517 145.46254,282.34571 159.75716,281.70899 C 178.40380,282.31316 195.17307,272.08634 210.96119,263.39655 C 238.86822,247.29412 267.46855,227.28642 280.50000,196.65625 C 285.20025,183.88331 280.84858,169.06394 270.03194,160.83761 C 262.50539,154.20681 251.87349,151.59163 242.06250,153.37500 z M 195.21371,180.36113 C 232.50708,156.07667 257.48818,145.83866 275.15682,172.97222 C 287.58817,192.06291 264.51105,224.57243 227.21767,248.85690 C 189.92432,273.14134 156.90027,288.61669 144.46895,269.52603 C 132.03763,250.43537 157.92033,204.64558 195.21371,180.36113 z "
         style="color:#000000;fill:#000000;fill-opacity:1.0000000;fill-rule:evenodd;stroke:none;stroke-width:1.2754596;stroke-linecap:round;stroke-linejoin:round;marker:none;marker-start:none;marker-mid:none;marker-end:none;stroke-miterlimit:4.0000000;stroke-dashoffset:0.0000000;stroke-opacity:1.0000000;visibility:visible;display:inline;overflow:visible"
         id="path2194" />
      <path
         sodipodi:nodetypes="ccccccscc"
         id="path1316"
         d="M 300.68682,142.46824 C 270.53087,144.98138 241.67847,159.63359 221.27125,181.88065 C 175.03318,189.48561 132.91247,226.38845 126.29610,273.89185 C 119.37624,316.20001 143.44665,359.42603 180.25710,379.97817 C 230.09590,409.61546 300.43409,400.19159 338.43725,355.53323 C 356.84595,334.91377 365.44933,306.95365 364.04030,279.54514 C 364.46903,244.79223 379.10564,225.47153 361.17704,175.18150 C 353.45451,153.51971 331.15447,142.32219 310.12373,142.24136 C 306.97692,142.15489 303.82607,142.23666 300.68682,142.46824 z "
         style="opacity:1.0000000;color:#000000;fill:#eed6b1;fill-opacity:1.0000000;fill-rule:evenodd;stroke:none;stroke-width:5.0000000;stroke-linecap:round;stroke-linejoin:round;marker:none;marker-start:none;marker-mid:none;marker-end:none;stroke-miterlimit:4.0000000;stroke-dasharray:none;stroke-dashoffset:0.0000000;stroke-opacity:1.0000000;visibility:visible;display:inline;overflow:visible" />
      <path
         style="opacity:1.0000000;color:#000000;fill:url(#radialGradient1394);fill-opacity:1.0000000;fill-rule:evenodd;stroke:none;stroke-width:1.3503178;stroke-linecap:round;stroke-linejoin:round;marker:none;marker-start:none;marker-mid:none;marker-end:none;stroke-miterlimit:4.0000000;stroke-dasharray:none;stroke-dashoffset:0.0000000;stroke-opacity:1.0000000;visibility:visible;display:inline;overflow:visible"
         d="M 300.68682,142.46824 C 270.53087,144.98138 241.67847,159.63359 221.27125,181.88065 C 175.03318,189.48561 132.91247,226.38845 126.29610,273.89185 C 119.37624,316.20001 143.44665,359.42603 180.25710,379.97817 C 230.09590,409.61546 300.43409,400.19159 338.43725,355.53323 C 356.84595,334.91377 365.44933,306.95365 364.04030,279.54514 C 364.46903,244.79223 379.10564,225.47153 361.17704,175.18150 C 353.45451,153.51971 331.15447,142.32219 310.12373,142.24136 C 306.97692,142.15489 303.82607,142.23666 300.68682,142.46824 z "
         id="path2340"
         sodipodi:nodetypes="ccccccscc" />
      <path
         id="path2104"
         d="M 364.82692,240.28527 C 364.60212,253.71521 364.23229,267.17310 364.06736,280.54162 C 365.47639,307.95013 356.82002,335.96186 338.41132,356.58140 C 311.00884,388.78267 266.87842,402.37206 225.65978,396.50017 C 245.12596,408.86376 269.13429,416.41739 295.36994,416.41736 C 359.57559,416.41736 411.66607,372.54135 411.66607,318.43492 C 411.66607,286.37718 393.09015,258.17261 364.82692,240.28527 z "
         style="opacity:1.0000000;color:#000000;fill:url(#linearGradient1396);fill-opacity:1.0000000;fill-rule:evenodd;stroke:none;stroke-width:0.50000000;stroke-linecap:round;stroke-linejoin:round;marker:none;marker-start:none;marker-mid:none;marker-end:none;stroke-miterlimit:4.0000000;stroke-dasharray:none;stroke-dashoffset:0.0000000;stroke-opacity:1.0000000;visibility:visible;display:inline;overflow:visible" />
      <path
         id="path2109"
         d="M 241.15133,165.68358 C 238.34586,165.95816 234.89153,167.24280 231.53032,169.39696 C 225.03720,173.55831 221.19244,179.53452 222.58446,183.06893 C 227.77136,182.69057 234.15590,180.45231 240.47617,176.40173 C 243.07872,174.73379 245.30350,172.83006 247.39655,170.91607 C 247.61573,169.76876 247.51735,168.74559 247.05897,167.87785 C 246.14224,166.14240 243.95681,165.40901 241.15133,165.68358 z "
         style="opacity:1.0000000;color:#000000;fill:#000000;fill-opacity:1.0000000;fill-rule:evenodd;stroke:none;stroke-width:1.3503178;stroke-linecap:round;stroke-linejoin:round;marker:none;marker-start:none;marker-mid:none;marker-end:none;stroke-miterlimit:4.0000000;stroke-dasharray:none;stroke-dashoffset:0.0000000;stroke-opacity:1.0000000;visibility:visible;display:inline;overflow:visible" />
      <path
         id="path2117"
         d="M 270.42625,173.61036 C 264.06452,173.40389 257.73272,178.37395 256.49380,185.12886 C 256.42191,186.66091 257.56731,187.84630 258.47440,188.88677 C 259.86587,190.27171 261.42074,191.65282 263.30173,192.16278 C 269.43017,192.63879 275.72611,193.29707 281.33860,196.17671 C 282.95466,195.60625 282.43533,193.42565 281.86509,192.19948 C 280.92708,189.02035 281.58938,185.50698 283.10600,182.65792 C 283.71170,180.98134 281.99124,179.79635 281.22947,178.56343 C 278.48719,175.40101 274.46135,173.56326 270.42625,173.61036 z "
         style="opacity:1.0000000;color:#000000;fill:#000000;fill-opacity:1.0000000;fill-rule:evenodd;stroke:none;stroke-width:0.50000000;stroke-linecap:round;stroke-linejoin:round;marker:none;marker-start:none;marker-mid:none;marker-end:none;stroke-miterlimit:4.0000000;stroke-dasharray:none;stroke-dashoffset:0.0000000;stroke-opacity:1.0000000;visibility:visible;display:inline;overflow:visible" />
      <path
         d="M 300.65625,138.46875 C 269.87788,141.25877 240.54248,155.78639 219.31250,178.18750 C 170.94650,186.55985 127.46776,226.60867 121.93750,276.46875 C 115.73172,324.94252 148.06326,373.19455 192.83838,390.64601 C 245.28565,413.34147 313.24454,397.94190 347.11224,350.83452 C 363.69703,329.21529 369.04641,301.26082 368.38558,274.54003 C 370.23768,248.22151 378.22507,221.47325 370.83129,195.24192 C 367.45265,175.69134 358.88520,154.87551 339.97326,145.78455 C 327.98542,139.17167 314.12520,137.69292 300.65625,138.46875 z M 300.68682,142.46824 C 270.53087,144.98138 241.67847,159.63359 221.27125,181.88065 C 175.03318,189.48561 132.91247,226.38845 126.29610,273.89185 C 119.37624,316.20001 143.44665,359.42603 180.25710,379.97817 C 230.09590,409.61546 300.43409,400.19159 338.43725,355.53323 C 356.84595,334.91377 365.44933,306.95365 364.04030,279.54514 C 364.46903,244.79223 379.10564,225.47153 361.17704,175.18150 C 353.45451,153.51971 331.15447,142.32219 310.12373,142.24136 C 306.97692,142.15489 303.82607,142.23666 300.68682,142.46824 z "
         style="color:#000000;fill:#000000;fill-opacity:1.0000000;fill-rule:evenodd;stroke:none;stroke-width:1.3503178;stroke-linecap:round;stroke-linejoin:round;marker:none;marker-start:none;marker-mid:none;marker-end:none;stroke-miterlimit:4.0000000;stroke-dashoffset:0.0000000;stroke-opacity:1.0000000;visibility:visible;display:inline;overflow:visible"
         id="path2177" />
      <path
         id="path2055"
         d="M 300.94000,103.48119 C 293.21737,101.65805 289.66655,112.27100 283.11632,109.71310 C 273.12764,108.21319 262.26269,118.24611 266.08411,128.44533 C 265.58414,130.41666 256.34910,127.51847 253.21639,131.41265 C 244.51532,136.02828 243.65928,149.54410 251.96956,154.99196 C 258.84582,161.55593 269.34670,156.45284 275.17915,154.77769 C 282.13969,162.42481 292.10171,153.52019 298.37759,160.11490 C 304.75830,164.07236 312.10138,156.93309 315.66900,164.77396 C 320.53096,168.75615 327.29394,167.01981 328.45008,174.37247 C 331.32405,180.02202 340.35416,180.32597 343.64381,181.20886 C 343.47996,191.01069 354.68827,198.37899 363.72979,195.21841 C 366.24653,204.04747 377.08105,208.36351 385.33487,205.00822 C 384.51250,217.48772 400.92286,224.52855 410.60947,217.83948 C 420.78282,213.45915 417.28291,199.11027 413.86960,194.64445 C 422.46335,192.00903 427.17174,180.62601 421.27326,173.27275 C 417.67520,166.09219 406.52031,169.87954 407.53512,160.78479 C 406.01426,154.76518 397.59387,153.08250 394.85018,150.70535 C 398.25288,139.97121 385.23130,130.01899 375.29188,133.69455 C 372.94168,125.72960 363.47066,120.87631 355.62788,123.56717 C 355.10598,112.35192 341.01660,106.23117 331.74413,111.58310 C 327.26815,104.74552 317.43670,102.42441 310.39223,106.60380 C 307.61298,104.71905 304.33184,103.45910 300.94000,103.48119 z "
         style="opacity:1.0000000;color:#000000;fill:url(#radialGradient1398);fill-opacity:1.0000000;fill-rule:evenodd;stroke:none;stroke-width:1.4335296;stroke-linecap:round;stroke-linejoin:round;marker:none;marker-start:none;marker-mid:none;marker-end:none;stroke-miterlimit:4.0000000;stroke-dasharray:none;stroke-dashoffset:0.0000000;stroke-opacity:1.0000000;visibility:visible;display:inline;overflow:visible" />
      <path
         d="M 296.87500,99.562500 C 290.97641,101.23077 286.63400,107.58435 280.00357,105.77194 C 270.17824,106.01775 260.78259,115.03822 261.56250,125.09375 C 247.12029,123.99206 236.40045,142.74114 245.71423,154.31547 C 251.66635,162.91287 264.01915,164.10828 272.78125,159.50000 C 279.23702,162.29107 286.10897,161.86940 292.94549,161.99161 C 297.74127,164.51067 302.95897,166.21458 308.53125,165.03125 C 313.19913,165.94499 316.15677,170.88596 321.30509,171.88889 C 326.04865,174.92102 327.03272,181.76983 333.43750,182.90625 C 340.77555,182.25902 340.60720,188.76969 344.41713,193.13929 C 348.62767,197.78724 355.14872,200.57199 361.43750,199.68750 C 365.11305,207.05133 373.99746,211.03349 382.00000,209.87500 C 385.82410,227.08455 414.11742,229.45604 420.10710,212.59837 C 422.14689,207.43086 421.34515,201.40479 419.03125,196.43750 C 431.85517,189.76053 429.86419,167.30013 415.01805,164.52217 C 409.42218,162.06954 411.43022,153.57537 404.77380,151.80781 C 398.63519,150.32871 399.31414,144.85051 397.59375,140.09375 C 393.97344,132.90974 385.71783,128.09692 377.65625,129.25000 C 374.04768,122.54626 366.15908,118.36541 358.59375,119.00000 C 355.54410,108.72559 342.75008,103.16492 332.93750,106.90625 C 327.46190,100.99155 317.96233,98.954354 310.56250,102.18750 C 306.46680,99.757637 301.50028,99.417399 296.87500,99.562500 z M 300.94000,103.48119 C 293.21737,101.65805 289.66655,112.27100 283.11632,109.71310 C 273.12764,108.21319 262.26269,118.24611 266.08411,128.44533 C 265.58414,130.41666 256.34910,127.51847 253.21639,131.41265 C 244.51532,136.02828 243.65928,149.54410 251.96956,154.99196 C 258.84582,161.55593 269.34670,156.45284 275.17915,154.77769 C 282.13969,162.42481 292.10171,153.52019 298.37759,160.11490 C 304.75830,164.07236 312.10138,156.93309 315.66900,164.77396 C 320.53096,168.75615 327.29394,167.01981 328.45008,174.37247 C 331.32405,180.02202 340.35416,180.32597 343.64381,181.20886 C 343.47996,191.01069 354.68827,198.37899 363.72979,195.21841 C 366.24653,204.04747 377.08105,208.36351 385.33487,205.00822 C 384.51250,217.48772 400.92286,224.52855 410.60947,217.83948 C 420.78282,213.45915 417.28291,199.11027 413.86960,194.64445 C 422.46335,192.00903 427.17174,180.62601 421.27326,173.27275 C 417.67520,166.09219 406.52031,169.87954 407.53512,160.78479 C 406.01426,154.76518 397.59387,153.08250 394.85018,150.70535 C 398.25288,139.97121 385.23130,130.01899 375.29188,133.69455 C 372.94168,125.72960 363.47066,120.87631 355.62788,123.56717 C 355.10598,112.35192 341.01660,106.23117 331.74413,111.58310 C 327.26815,104.74552 317.43670,102.42441 310.39223,106.60380 C 307.61298,104.71905 304.33184,103.45910 300.94000,103.48119 z "
         style="color:#000000;fill:#000000;fill-opacity:1.0000000;fill-rule:evenodd;stroke:none;stroke-width:1.4335296;stroke-linecap:round;stroke-linejoin:round;marker:none;marker-start:none;marker-mid:none;marker-end:none;stroke-miterlimit:4.0000000;stroke-dashoffset:0.0000000;stroke-opacity:1.0000000;visibility:visible;display:inline;overflow:visible"
         id="path2143" />
      <path
         sodipodi:nodetypes="csssc"
         id="path2048"
         d="M 428.95659,295.54892 C 428.95659,342.66402 423.60779,370.74124 389.32822,370.74124 C 365.20979,370.74124 349.69985,331.48679 349.69985,284.37169 C 349.69985,237.25662 355.04867,199.01826 379.16711,199.01826 C 403.28554,199.01826 428.95659,248.43385 428.95659,295.54892 z "
         style="opacity:1.0000000;color:#000000;fill:url(#radialGradient1400);fill-opacity:1.0000000;fill-rule:evenodd;stroke:none;stroke-width:1.4335296;stroke-linecap:round;stroke-linejoin:round;marker:none;marker-start:none;marker-mid:none;marker-end:none;stroke-miterlimit:4.0000000;stroke-dasharray:none;stroke-dashoffset:0.0000000;stroke-opacity:1.0000000;visibility:visible;display:inline;overflow:visible" />
      <path
         transform="matrix(0.501496,0.724922,-0.700555,0.484638,241.5286,-81.74322)"
         d="M 236.78149 173.93208 A 3.6540353 4.3848424 0 1 1  229.47342,173.93208 A 3.6540353 4.3848424 0 1 1  236.78149 173.93208 z"
         sodipodi:ry="4.3848424"
         sodipodi:rx="3.6540353"
         sodipodi:cy="173.93208"
         sodipodi:cx="233.12746"
         id="path2350"
         style="opacity:1.0000000;color:#000000;fill:url(#linearGradient1402);fill-opacity:1.0000000;fill-rule:evenodd;stroke:none;stroke-width:1.4335296;stroke-linecap:round;stroke-linejoin:round;marker:none;marker-start:none;marker-mid:none;marker-end:none;stroke-miterlimit:4.0000000;stroke-dasharray:none;stroke-dashoffset:0.0000000;stroke-opacity:1.0000000;visibility:visible;display:inline;overflow:visible"
         sodipodi:type="arc" />
      <path
         sodipodi:type="arc"
         style="opacity:1.0000000;color:#000000;fill:url(#linearGradient1404);fill-opacity:1.0000000;fill-rule:evenodd;stroke:none;stroke-width:1.4335296;stroke-linecap:round;stroke-linejoin:round;marker:none;marker-start:none;marker-mid:none;marker-end:none;stroke-miterlimit:4.0000000;stroke-dasharray:none;stroke-dashoffset:0.0000000;stroke-opacity:1.0000000;visibility:visible;display:inline;overflow:visible"
         id="path2360"
         sodipodi:cx="233.12746"
         sodipodi:cy="173.93208"
         sodipodi:rx="3.6540353"
         sodipodi:ry="4.3848424"
         d="M 236.78149 173.93208 A 3.6540353 4.3848424 0 1 1  229.47342,173.93208 A 3.6540353 4.3848424 0 1 1  236.78149 173.93208 z"
         transform="matrix(0.653287,0.863606,-0.912597,0.577354,273.1211,-121.3226)" />
      <path
         d="M 374.46875,195.46875 C 357.37291,199.69928 351.86245,218.68376 349.15625,233.93750 C 344.47861,270.52800 342.92902,309.01934 355.79916,344.20083 C 361.46157,359.53322 374.14298,375.82279 392.17973,374.68016 C 409.07444,374.63958 424.78879,362.19777 427.90555,345.42653 C 433.77275,323.98504 433.47514,301.28718 431.85714,279.29160 C 428.28819,251.56418 418.79017,222.88102 398.18750,203.12500 C 391.54256,197.76389 383.21551,193.69688 374.46875,195.46875 z M 428.95659,295.54892 C 428.95659,342.66402 423.60779,370.74124 389.32822,370.74124 C 365.20979,370.74124 349.69985,331.48679 349.69985,284.37169 C 349.69985,237.25662 355.04867,199.01826 379.16711,199.01826 C 403.28554,199.01826 428.95659,248.43385 428.95659,295.54892 z "
         style="opacity:1.0000000;color:#000000;fill:#000000;fill-opacity:1.0000000;fill-rule:evenodd;stroke:none;stroke-width:1.4335296;stroke-linecap:round;stroke-linejoin:round;marker:none;marker-start:none;marker-mid:none;marker-end:none;stroke-miterlimit:4.0000000;stroke-dashoffset:0.0000000;stroke-opacity:1.0000000;visibility:visible;display:inline;overflow:visible"
         id="path2160" />
      <path
         id="rect2203"
         d="M 369.12500,206.90625 C 355.89465,222.06812 355.93054,243.44784 354.32341,262.40462 C 353.00096,293.55042 353.10128,327.29685 370.46387,354.44879 C 372.52778,359.83878 378.45881,363.21376 381.71261,356.64896 C 387.03685,347.29424 383.31474,335.89563 384.44022,325.65625 C 384.31349,288.91840 384.85611,252.00538 383.73661,215.37845 C 381.58863,210.01367 375.15117,204.80430 369.12500,206.90625 z "
         style="opacity:1.0000000;color:#000000;fill:url(#linearGradient1406);fill-opacity:1.0000000;fill-rule:evenodd;stroke:none;stroke-width:5.0000000;stroke-linecap:round;stroke-linejoin:round;marker:none;marker-start:none;marker-mid:none;marker-end:none;stroke-miterlimit:4.0000000;stroke-dasharray:none;stroke-dashoffset:0.0000000;stroke-opacity:1.0000000;visibility:visible;display:inline;overflow:visible" />
      <path
         id="path2127"
         d="M 168.79145,260.73637 C 171.01729,263.83128 171.30523,267.76043 172.36782,271.31633 C 173.13399,274.32935 174.50913,277.16999 176.38253,279.64874 C 178.28418,282.50509 179.87000,285.92323 179.20715,289.43754 C 178.79612,292.17539 177.51515,294.98092 175.17929,296.57098 C 173.15973,297.20881 171.73909,295.13634 170.92706,293.59984 C 169.14072,290.34542 169.58981,286.52872 169.18490,282.96903 C 168.90958,279.47579 168.79877,275.96823 168.62593,272.47272 C 168.09045,269.23230 166.55986,265.90491 167.66796,262.61299 C 167.81679,261.91817 167.86807,260.81845 168.79145,260.73637 z "
         style="opacity:1.0000000;fill:#8a6223;fill-opacity:1.0000000;fill-rule:evenodd;stroke:none;stroke-width:1.0000000px;stroke-linecap:butt;stroke-linejoin:miter;stroke-opacity:1.0000000" />
      <path
         sodipodi:nodetypes="cccccscccc"
         id="path2129"
         d="M 178.54323,311.14831 C 178.88086,319.11796 177.45919,327.29338 179.83035,335.07170 C 181.58660,341.86285 183.56133,348.65806 184.21618,355.66532 C 184.59562,356.64789 183.50746,358.57800 182.80481,356.93191 C 180.60535,349.28609 178.01515,341.68353 177.00632,333.76065 C 176.45364,327.85282 177.63306,321.80307 176.85266,316.00424 C 176.56839,313.89191 178.30811,311.93616 178.49119,310.46113 L 178.50299,310.83214 L 178.54323,311.14831 L 178.54323,311.14831 z "
         style="opacity:1.0000000;fill:#8a6223;fill-opacity:1.0000000;fill-rule:evenodd;stroke:none;stroke-width:1.0000000px;stroke-linecap:butt;stroke-linejoin:miter;stroke-opacity:1.0000000" />
      <path
         id="path2131"
         d="M 221.35992,274.03577 C 216.28316,275.02415 212.30876,278.58672 207.73286,280.74504 C 204.73408,282.25867 201.46023,283.08063 198.18233,283.72001 C 194.34838,284.67331 190.30593,286.32631 188.14334,289.83695 C 186.66653,292.01885 185.77191,294.82384 186.56063,297.42703 C 187.83987,299.13124 190.27312,298.74891 192.06647,298.26760 C 195.96943,297.35655 198.90438,294.48323 201.84086,291.95217 C 205.39254,289.14318 208.72621,286.07013 212.17473,283.14129 C 215.12329,281.11228 218.80560,279.78670 220.71020,276.56330 C 221.04311,275.80509 222.24567,274.85749 221.35992,274.03577 z "
         style="opacity:1.0000000;fill:#8a6223;fill-opacity:1.0000000;fill-rule:evenodd;stroke:none;stroke-width:1.0000000px;stroke-linecap:butt;stroke-linejoin:miter;stroke-opacity:1.0000000" />
    </g>
  </g>
</svg>
